<svg width="108" height="51" viewBox="0 0 108 51" fill="none" xmlns="http://www.w3.org/2000/svg">
<path d="M15.3156 0L0 43.3689L11.373 31.541L15.3156 20.0164L17.7418 26.082L26.9918 18.1967L22.8975 20.0164L15.3156 0Z" fill="#F4742A"/>
<path d="M14.7097 31.6926L40.9433 8.49176L16.0744 35.4836C14.2547 37.3032 11.3736 40.892 10.1605 42.459C7.73422 47.6754 21.9883 41.7008 29.4186 38.0614C24.6875 42.186 17.1359 46.5532 13.9515 48.2213C2.5482 52.8311 0.000653893 49.8388 0.152293 47.7663C0.637539 45.8254 10.0594 36.2418 14.7097 31.6926Z" fill="#F4742A"/>
<path d="M62.0979 10.9635C62.0411 10.3906 61.7973 9.94554 61.3664 9.6283C60.9355 9.31107 60.3508 9.15245 59.6121 9.15245C59.1103 9.15245 58.6865 9.22347 58.3408 9.36552C57.9952 9.50283 57.73 9.69459 57.5454 9.9408C57.3655 10.187 57.2755 10.4664 57.2755 10.7789C57.266 11.0393 57.3205 11.2666 57.4389 11.4607C57.562 11.6548 57.73 11.8229 57.9431 11.9649C58.1562 12.1023 58.4024 12.223 58.6818 12.3272C58.9611 12.4266 59.2594 12.5118 59.5766 12.5828L60.8835 12.8953C61.5179 13.0374 62.1003 13.2268 62.6306 13.4635C63.1609 13.7003 63.6202 13.9915 64.0085 14.3371C64.3967 14.6828 64.6974 15.0899 64.9104 15.5587C65.1282 16.0274 65.2395 16.5649 65.2443 17.1709C65.2395 18.0611 65.0122 18.8328 64.5624 19.4863C64.1174 20.1349 63.4734 20.6392 62.6306 20.999C61.7925 21.3542 60.7817 21.5317 59.5979 21.5317C58.4237 21.5317 57.401 21.3518 56.5298 20.9919C55.6633 20.6321 54.9862 20.0994 54.4985 19.3939C54.0156 18.6837 53.7622 17.8054 53.7386 16.759H56.7144C56.7476 17.2467 56.8872 17.6539 57.1335 17.9806C57.3844 18.3025 57.7182 18.5464 58.1349 18.7121C58.5563 18.8731 59.0321 18.9536 59.5624 18.9536C60.0833 18.9536 60.5354 18.8778 60.919 18.7263C61.3072 18.5748 61.6079 18.3641 61.821 18.0942C62.034 17.8243 62.1406 17.5142 62.1406 17.1638C62.1406 16.8371 62.0435 16.5625 61.8494 16.3399C61.66 16.1174 61.3806 15.928 61.0113 15.7718C60.6467 15.6155 60.1993 15.4735 59.669 15.3456L58.0852 14.9479C56.8588 14.6496 55.8906 14.1832 55.1803 13.5488C54.4701 12.9143 54.1174 12.0596 54.1221 10.9848C54.1174 10.1042 54.3517 9.33474 54.8252 8.6766C55.3034 8.01845 55.9592 7.50472 56.7925 7.1354C57.6259 6.76609 58.5729 6.58143 59.6335 6.58143C60.713 6.58143 61.6552 6.76609 62.4602 7.1354C63.2698 7.50472 63.8996 8.01845 64.3494 8.6766C64.7992 9.33474 65.0312 10.0971 65.0454 10.9635H62.0979ZM70.2974 18.1865L70.3046 14.5573H70.7449L74.2392 10.4167H77.7122L73.0176 15.8996H72.3003L70.2974 18.1865ZM67.556 21.3257V6.78029H70.5815V21.3257H67.556ZM74.3742 21.3257L71.1639 16.5743L73.181 14.4365L77.9182 21.3257H74.3742ZM82.6074 21.5317C81.9114 21.5317 81.2911 21.411 80.7466 21.1695C80.2021 20.9233 79.7712 20.5611 79.454 20.0828C79.1415 19.5999 78.9852 18.9986 78.9852 18.2789C78.9852 17.6728 79.0965 17.1638 79.319 16.7519C79.5416 16.3399 79.8446 16.0085 80.2281 15.7576C80.6117 15.5066 81.0473 15.3172 81.5349 15.1894C82.0274 15.0615 82.5435 14.9716 83.0832 14.9195C83.7177 14.8532 84.2291 14.7917 84.6173 14.7348C85.0056 14.6733 85.2873 14.5833 85.4625 14.4649C85.6377 14.3466 85.7253 14.1714 85.7253 13.9394V13.8968C85.7253 13.447 85.5832 13.0989 85.2992 12.8527C85.0198 12.6065 84.6221 12.4834 84.106 12.4834C83.5615 12.4834 83.1282 12.6042 82.8063 12.8456C82.4843 13.0824 82.2712 13.3807 82.1671 13.7405L79.3688 13.5132C79.5108 12.8504 79.7902 12.2774 80.2068 11.7945C80.6235 11.3068 81.1609 10.9328 81.819 10.6723C82.4819 10.4072 83.249 10.2746 84.1202 10.2746C84.7262 10.2746 85.3063 10.3456 85.8602 10.4877C86.4189 10.6297 86.9137 10.8499 87.3446 11.1482C87.7802 11.4465 88.1235 11.83 88.3744 12.2988C88.6254 12.7628 88.7509 13.3191 88.7509 13.9678V21.3257H85.8815V19.813H85.7963C85.6211 20.1539 85.3867 20.4545 85.0932 20.7149C84.7996 20.9706 84.4469 21.1719 84.0349 21.3186C83.623 21.4607 83.1472 21.5317 82.6074 21.5317ZM83.4739 19.4436C83.9189 19.4436 84.3119 19.356 84.6528 19.1809C84.9938 19.0009 85.2613 18.7595 85.4554 18.4564C85.6495 18.1534 85.7466 17.8101 85.7466 17.4266V16.2689C85.6519 16.3305 85.5217 16.3873 85.356 16.4394C85.195 16.4867 85.0127 16.5317 84.8091 16.5743C84.6055 16.6122 84.4019 16.6477 84.1983 16.6809C83.9947 16.7093 83.81 16.7353 83.6443 16.759C83.2892 16.8111 82.9791 16.8939 82.7139 17.0076C82.4488 17.1212 82.2428 17.2751 82.096 17.4692C81.9492 17.6586 81.8759 17.8953 81.8759 18.1794C81.8759 18.5914 82.025 18.9062 82.3233 19.124C82.6263 19.3371 83.0099 19.4436 83.4739 19.4436ZM94.4237 6.78029V21.3257H91.3982V6.78029H94.4237ZM102.119 21.5388C100.997 21.5388 100.031 21.3115 99.2212 20.857C98.4163 20.3977 97.7961 19.749 97.3604 18.911C96.9248 18.0682 96.707 17.0715 96.707 15.9209C96.707 14.7988 96.9248 13.8139 97.3604 12.9664C97.7961 12.1188 98.4092 11.4583 99.1999 10.9848C99.9954 10.5114 100.928 10.2746 101.998 10.2746C102.718 10.2746 103.388 10.3906 104.008 10.6226C104.633 10.8499 105.178 11.1932 105.642 11.6524C106.11 12.1117 106.475 12.6894 106.735 13.3854C106.996 14.0767 107.126 14.8864 107.126 15.8144V16.6453H97.9144V14.7703H104.278C104.278 14.3347 104.183 13.9489 103.994 13.6127C103.805 13.2765 103.542 13.0137 103.206 12.8243C102.874 12.6302 102.488 12.5331 102.048 12.5331C101.589 12.5331 101.181 12.6397 100.826 12.8527C100.476 13.0611 100.201 13.3428 100.002 13.6979C99.8036 14.0483 99.7018 14.4389 99.6971 14.8698V16.6524C99.6971 17.1922 99.7965 17.6586 99.9954 18.0516C100.199 18.4446 100.485 18.7476 100.855 18.9607C101.224 19.1738 101.662 19.2803 102.169 19.2803C102.505 19.2803 102.813 19.2329 103.092 19.1382C103.371 19.0435 103.61 18.9015 103.809 18.7121C104.008 18.5227 104.16 18.2907 104.264 18.0161L107.062 18.2007C106.92 18.8731 106.629 19.4602 106.189 19.9621C105.753 20.4593 105.19 20.8475 104.498 21.1269C103.812 21.4015 103.019 21.5388 102.119 21.5388Z" fill="white"/>
<path d="M56.3025 43.3257L53.3337 32.4167H56.3948L58.0852 39.7462H58.1846L59.946 32.4167H62.9502L64.74 39.7036H64.8323L66.4943 32.4167H69.5482L66.5866 43.3257H63.3835L61.5085 36.4649H61.3735L59.4985 43.3257H56.3025ZM74.573 43.5317C73.877 43.5317 73.2567 43.411 72.7122 43.1695C72.1677 42.9233 71.7368 42.5611 71.4196 42.0828C71.1071 41.5999 70.9509 40.9986 70.9509 40.2789C70.9509 39.6728 71.0621 39.1638 71.2847 38.7519C71.5072 38.3399 71.8102 38.0085 72.1938 37.7576C72.5773 37.5066 73.0129 37.3172 73.5006 37.1894C73.993 37.0615 74.5091 36.9716 75.0489 36.9195C75.6833 36.8532 76.1947 36.7917 76.583 36.7348C76.9712 36.6733 77.2529 36.5833 77.4281 36.4649C77.6033 36.3466 77.6909 36.1714 77.6909 35.9394V35.8968C77.6909 35.447 77.5489 35.0989 77.2648 34.8527C76.9854 34.6065 76.5877 34.4834 76.0716 34.4834C75.5271 34.4834 75.0938 34.6042 74.7719 34.8456C74.4499 35.0824 74.2368 35.3807 74.1327 35.7405L71.3344 35.5132C71.4764 34.8504 71.7558 34.2774 72.1724 33.7945C72.5891 33.3068 73.1265 32.9328 73.7847 32.6723C74.4475 32.4072 75.2146 32.2746 76.0858 32.2746C76.6919 32.2746 77.2719 32.3456 77.8259 32.4877C78.3846 32.6297 78.8794 32.8499 79.3102 33.1482C79.7458 33.4465 80.0891 33.83 80.3401 34.2988C80.591 34.7628 80.7165 35.3191 80.7165 35.9678V43.3257H77.8472V41.813H77.7619C77.5867 42.1539 77.3524 42.4545 77.0588 42.7149C76.7652 42.9706 76.4125 43.1719 76.0006 43.3186C75.5886 43.4607 75.1128 43.5317 74.573 43.5317ZM75.4395 41.4436C75.8846 41.4436 76.2776 41.356 76.6185 41.1809C76.9594 41.0009 77.2269 40.7595 77.421 40.4564C77.6152 40.1534 77.7122 39.8101 77.7122 39.4266V38.2689C77.6175 38.3305 77.4873 38.3873 77.3216 38.4394C77.1606 38.4867 76.9783 38.5317 76.7747 38.5743C76.5711 38.6122 76.3675 38.6477 76.1639 38.6809C75.9603 38.7093 75.7757 38.7353 75.6099 38.759C75.2548 38.8111 74.9447 38.8939 74.6795 39.0076C74.4144 39.1212 74.2084 39.2751 74.0617 39.4692C73.9149 39.6586 73.8415 39.8953 73.8415 40.1794C73.8415 40.5914 73.9906 40.9062 74.2889 41.124C74.592 41.3371 74.9755 41.4436 75.4395 41.4436ZM84.8411 47.4167C84.4575 47.4167 84.0977 47.3859 83.7615 47.3243C83.4301 47.2675 83.1554 47.1941 82.9376 47.1042L83.6195 44.8456C83.9746 44.9545 84.2942 45.0137 84.5783 45.0232C84.8671 45.0327 85.1157 44.9664 85.324 44.8243C85.5371 44.6823 85.7099 44.4408 85.8425 44.0999L86.02 43.6382L82.1067 32.4167H85.2885L87.547 40.428H87.6607L89.9405 32.4167H93.1436L88.9036 44.5047C88.7 45.0918 88.423 45.6032 88.0726 46.0388C87.7269 46.4792 87.289 46.8177 86.7587 47.0544C86.2284 47.2959 85.5892 47.4167 84.8411 47.4167Z" fill="#F4742A"/>
</svg>
