<svg width="76" height="37" viewBox="0 0 76 37" fill="none" xmlns="http://www.w3.org/2000/svg">
<path d="M76 18.4124C76.0004 22.0539 74.9221 25.6137 72.9015 28.6417C70.8808 31.6696 68.0085 34.0296 64.6479 35.4232C61.2874 36.8168 57.5894 37.1814 54.0219 36.4709C50.4543 35.7603 47.1773 34.0066 44.6055 31.4314L44.4553 31.2688L26.1083 10.5298C24.5572 9.00536 22.5909 7.97356 20.4562 7.56385C18.3214 7.15413 16.1133 7.38475 14.1091 8.22675C12.1048 9.06876 10.3935 10.4846 9.1901 12.2967C7.98669 14.1088 7.34469 16.2364 7.34469 18.4124C7.34469 20.5884 7.98669 22.7159 9.1901 24.528C10.3935 26.3401 12.1048 27.756 14.1091 28.598C16.1133 29.44 18.3214 29.6706 20.4562 29.2609C22.5909 28.8512 24.5572 27.8194 26.1083 26.295L27.0523 25.2272C27.3725 24.8645 27.7609 24.5686 28.1954 24.3562C28.6298 24.1438 29.1018 24.0192 29.5843 23.9894C30.0669 23.9596 30.5506 24.0253 31.0078 24.1827C31.465 24.34 31.8868 24.586 32.249 24.9065C32.6113 25.2271 32.9069 25.6159 33.119 26.0508C33.3312 26.4858 33.4557 26.9583 33.4854 27.4413C33.5152 27.9244 33.4496 28.4087 33.2924 28.8664C33.1352 29.3241 32.8895 29.7463 32.5693 30.1089L31.5425 31.2688L31.3923 31.4314C28.8204 34.0058 25.5436 35.7589 21.9764 36.469C18.4092 37.1791 14.7118 36.8143 11.3516 35.4208C7.99152 34.0273 5.1196 31.6676 3.09903 28.6402C1.07847 25.6127 0 22.0534 0 18.4124C0 14.7713 1.07847 11.212 3.09903 8.18456C5.1196 5.15709 7.99152 2.79741 11.3516 1.4039C14.7118 0.0103889 18.4092 -0.354376 21.9764 0.355731C25.5436 1.06584 28.8204 2.81893 31.3923 5.39332L31.5425 5.55594L49.8895 26.295C51.4406 27.8194 53.4069 28.8512 55.5416 29.2609C57.6764 29.6706 59.8844 29.44 61.8887 28.598C63.893 27.756 65.6043 26.3401 66.8077 24.528C68.0111 22.7159 68.6531 20.5884 68.6531 18.4124C68.6531 16.2364 68.0111 14.1088 66.8077 12.2967C65.6043 10.4846 63.893 9.06876 61.8887 8.22675C59.8844 7.38475 57.6764 7.15413 55.5416 7.56385C53.4069 7.97356 51.4406 9.00536 49.8895 10.5298L48.9455 11.5975C48.6253 11.9602 48.2369 12.2562 47.8024 12.4685C47.368 12.6809 46.896 12.8055 46.4135 12.8353C45.9309 12.8651 45.4472 12.7994 44.99 12.6421C44.5328 12.4847 44.111 12.2387 43.7488 11.9182C43.3865 11.5976 43.0909 11.2088 42.8788 10.7739C42.6666 10.339 42.5421 9.86648 42.5124 9.38339C42.4826 8.9003 42.5482 8.41608 42.7054 7.95837C42.8626 7.50066 43.1083 7.07843 43.4285 6.71578L44.4553 5.55594L44.6055 5.39332C47.1773 2.81817 50.4543 1.06442 54.0219 0.353875C57.5894 -0.356667 61.2874 0.00791819 64.6479 1.40152C68.0085 2.79512 70.8808 5.15514 72.9015 8.18308C74.9221 11.211 76.0004 14.7709 76 18.4124Z" fill="white"/>
</svg>
