<svg width="106" height="56" viewBox="0 0 106 56" fill="none" xmlns="http://www.w3.org/2000/svg">
<path d="M71.4898 25.9088C71.4901 28.7514 70.6484 31.5302 69.0711 33.8938C67.4937 36.2574 65.2516 38.0997 62.6284 39.1875C60.0051 40.2754 57.1185 40.5599 54.3336 40.0053C51.5488 39.4506 48.9908 38.0817 46.9832 36.0715L46.866 35.9446L32.5443 19.7557C31.3335 18.5657 29.7986 17.7603 28.1323 17.4405C26.4659 17.1206 24.7423 17.3007 23.1777 17.9579C21.6132 18.6152 20.2774 19.7204 19.338 21.135C18.3986 22.5495 17.8975 24.2102 17.8975 25.9088C17.8975 27.6074 18.3986 29.2682 19.338 30.6827C20.2774 32.0972 21.6132 33.2025 23.1777 33.8597C24.7423 34.517 26.4659 34.697 28.1323 34.3772C29.7986 34.0574 31.3335 33.2519 32.5443 32.062L33.2812 31.2285C33.5312 30.9454 33.8344 30.7144 34.1735 30.5486C34.5126 30.3828 34.881 30.2855 35.2577 30.2623C35.6344 30.239 36.012 30.2903 36.3689 30.4131C36.7258 30.536 37.055 30.728 37.3378 30.9782C37.6205 31.2284 37.8513 31.5319 38.0169 31.8714C38.1825 32.2109 38.2797 32.5798 38.3029 32.9569C38.3261 33.334 38.2749 33.7119 38.1522 34.0692C38.0295 34.4265 37.8377 34.7561 37.5878 35.0392L36.7863 35.9446L36.669 36.0715C34.6614 38.0811 32.1035 39.4495 29.319 40.0038C26.5344 40.5582 23.6482 40.2734 21.0253 39.1856C18.4024 38.0979 16.1605 36.2559 14.5833 33.8927C13.006 31.5294 12.1642 28.751 12.1642 25.9088C12.1642 23.0666 13.006 20.2882 14.5833 17.925C16.1605 15.5618 18.4024 13.7198 21.0253 12.632C23.6482 11.5442 26.5344 11.2595 29.319 11.8138C32.1035 12.3681 34.6614 13.7366 36.669 15.7462L36.7863 15.8731L51.1079 32.062C52.3187 33.2519 53.8536 34.0574 55.52 34.3772C57.1864 34.697 58.91 34.517 60.4745 33.8597C62.0391 33.2025 63.3749 32.0972 64.3143 30.6827C65.2537 29.2682 65.7548 27.6074 65.7548 25.9088C65.7548 24.2102 65.2537 22.5495 64.3143 21.135C63.3749 19.7204 62.0391 18.6152 60.4745 17.9579C58.91 17.3007 57.1864 17.1206 55.52 17.4405C53.8536 17.7603 52.3187 18.5657 51.1079 19.7557L50.371 20.5892C50.1211 20.8723 49.8179 21.1033 49.4788 21.2691C49.1396 21.4349 48.7712 21.5321 48.3945 21.5554C48.0179 21.5786 47.6403 21.5274 47.2834 21.4045C46.9265 21.2817 46.5973 21.0897 46.3145 20.8395C46.0317 20.5893 45.8009 20.2857 45.6353 19.9462C45.4697 19.6067 45.3726 19.2379 45.3493 18.8608C45.3261 18.4837 45.3773 18.1057 45.5 17.7484C45.6227 17.3912 45.8145 17.0616 46.0645 16.7785L46.866 15.8731L46.9832 15.7462C48.9908 13.736 51.5488 12.367 54.3336 11.8124C57.1185 11.2577 60.0051 11.5423 62.6284 12.6302C65.2516 13.718 67.4937 15.5602 69.0711 17.9238C70.6484 20.2875 71.4901 23.0663 71.4898 25.9088Z" fill="#97F2E8"/>
<path d="M6.10954 37.2268C6.10954 38.9139 4.74187 40.2815 3.05477 40.2815C1.36767 40.2815 0 38.9139 0 37.2268V3.05477C0 1.36767 1.36767 0 3.05477 0C4.74187 0 6.10954 1.36767 6.10954 3.05477V37.2268Z" fill="#97F2E8"/>
<path d="M106 24.1665C106 28.8212 104.475 32.3885 101.427 34.8683C98.3776 37.3482 94.0379 38.5881 88.4075 38.5881H87.3747C85.3856 38.5881 83.7731 40.2006 83.7731 42.1897V51.6642C83.7731 53.6534 82.1606 55.2658 80.1715 55.2658H80.0877C78.0986 55.2658 76.4861 53.6534 76.4861 51.6642V14.2917C76.4861 12.3026 78.0986 10.6901 80.0877 10.6901H89.3222C94.8916 10.6901 99.0585 11.8284 101.823 14.105C104.608 16.3815 106 19.7354 106 24.1665ZM83.7731 28.8581C83.7731 30.8472 85.3856 32.4597 87.3747 32.4597H87.6453C91.3853 32.4597 94.1294 31.8092 95.8774 30.5083C97.6255 29.2074 98.4995 27.1748 98.4995 24.4104C98.4995 21.8493 97.717 19.9386 96.1518 18.6784C94.5867 17.4182 92.1475 16.788 88.8343 16.788H87.3747C85.3856 16.788 83.7731 18.4005 83.7731 20.3896V28.8581Z" fill="#97F2E8"/>
</svg>
