<svg width="32" height="33" viewBox="0 0 32 33" fill="none" xmlns="http://www.w3.org/2000/svg">
<g id="zondicons:pen-tool">
<path id="Vector" d="M17.6 15.2955V0L27.2 18.15L20.8 28.05H11.2L4.80005 18.15L14.4 0V15.2955C13.79 15.6587 13.3132 16.2194 13.0436 16.8905C12.7741 17.5617 12.7268 18.3058 12.9091 19.0075C13.0914 19.7092 13.4932 20.3292 14.052 20.7715C14.6109 21.2137 15.2956 21.4534 16 21.4534C16.7045 21.4534 17.3892 21.2137 17.9481 20.7715C18.5069 20.3292 18.9087 19.7092 19.091 19.0075C19.2733 18.3058 19.226 17.5617 18.9565 16.8905C18.6869 16.2194 18.2101 15.6587 17.6 15.2955ZM9.60005 29.7H22.4V33H9.60005V29.7Z" fill="white"/>
</g>
</svg>
