<svg width="32" height="32" viewBox="0 0 32 32" fill="none" xmlns="http://www.w3.org/2000/svg">
<g id="ph:code-fill" clip-path="url(#clip0_755_21)">
<path id="Vector" d="M29.3572 0.416656H2.64293C1.99883 0.416656 1.38111 0.715167 0.925667 1.24652C0.470222 1.77787 0.214355 2.49854 0.214355 3.24999V28.75C0.214355 29.5014 0.470222 30.2221 0.925667 30.7535C1.38111 31.2848 1.99883 31.5833 2.64293 31.5833H29.3572C30.0013 31.5833 30.619 31.2848 31.0745 30.7535C31.5299 30.2221 31.7858 29.5014 31.7858 28.75V3.24999C31.7858 2.49854 31.5299 1.77787 31.0745 1.24652C30.619 0.715167 30.0013 0.416656 29.3572 0.416656ZM10.6572 19.1167C10.9149 19.3421 11.0852 19.6777 11.1307 20.0496C11.1763 20.4216 11.0933 20.7994 10.9001 21.1C10.7068 21.4006 10.4192 21.5993 10.1004 21.6524C9.78156 21.7056 9.45771 21.6088 9.20007 21.3833L4.34293 17.1333C4.19212 17.0014 4.06971 16.8303 3.98541 16.6335C3.9011 16.4368 3.85721 16.2199 3.85721 16C3.85721 15.7801 3.9011 15.5632 3.98541 15.3664C4.06971 15.1697 4.19212 14.9986 4.34293 14.8667L9.20007 10.6167C9.45771 10.3912 9.78156 10.2944 10.1004 10.3476C10.4192 10.4007 10.7068 10.5994 10.9001 10.9C11.0933 11.2006 11.1763 11.5784 11.1307 11.9503C11.0852 12.3223 10.9149 12.6579 10.6572 12.8833L7.0948 16L10.6572 19.1167ZM19.5959 6.47291L14.7387 26.3062C14.6973 26.4883 14.6252 26.6589 14.5267 26.808C14.4281 26.9572 14.305 27.0819 14.1646 27.1749C14.0242 27.2679 13.8694 27.3273 13.7091 27.3496C13.5488 27.372 13.3863 27.3568 13.2311 27.305C13.0758 27.2532 12.931 27.1658 12.8051 27.0479C12.6792 26.9301 12.5747 26.7841 12.4977 26.6185C12.4207 26.453 12.3728 26.2712 12.3568 26.0838C12.3407 25.8964 12.3569 25.7071 12.4043 25.5271L17.2614 5.69374C17.3548 5.33911 17.5636 5.04134 17.8431 4.86443C18.1226 4.68752 18.4505 4.64558 18.7562 4.74762C19.0619 4.84966 19.3211 5.08753 19.4781 5.41014C19.6351 5.73274 19.6774 6.11433 19.5959 6.47291ZM27.6572 17.1333L22.8001 21.3833C22.5424 21.6088 22.2186 21.7056 21.8998 21.6524C21.581 21.5993 21.2933 21.4006 21.1001 21.1C20.9068 20.7994 20.8239 20.4216 20.8694 20.0496C20.915 19.6777 21.0853 19.3421 21.3429 19.1167L24.9053 16L21.3429 12.8833C21.2154 12.7717 21.1079 12.6319 21.0266 12.4718C20.9454 12.3117 20.892 12.1345 20.8694 11.9503C20.8469 11.7662 20.8556 11.5786 20.8952 11.3984C20.9348 11.2182 21.0044 11.0488 21.1001 10.9C21.1957 10.7512 21.3156 10.6258 21.4528 10.531C21.59 10.4362 21.7419 10.3739 21.8998 10.3476C22.0576 10.3213 22.2184 10.3315 22.3729 10.3776C22.5273 10.4238 22.6725 10.505 22.8001 10.6167L27.6572 14.8667C27.808 14.9986 27.9304 15.1697 28.0147 15.3664C28.099 15.5632 28.1429 15.7801 28.1429 16C28.1429 16.2199 28.099 16.4368 28.0147 16.6335C27.9304 16.8303 27.808 17.0014 27.6572 17.1333Z" fill="white"/>
</g>
<defs>
<clipPath id="clip0_755_21">
<rect width="32" height="32" fill="white"/>
</clipPath>
</defs>
</svg>
