<svg width="80" height="80" viewBox="0 0 80 80" fill="none" xmlns="http://www.w3.org/2000/svg">
<g id="devicon:css3">
<path id="Vector" d="M11.7587 71.3268L5.47498 0.844971H74.525L68.235 71.3162L39.9581 79.1556L11.7587 71.3268Z" fill="#1572B6"/>
<path id="Vector_2" d="M40.0006 73.1637L62.85 66.8287L68.2256 6.60742H40.0006V73.1637Z" fill="#33A9DC"/>
<path id="Vector_3" d="M40.0006 32.1432H51.4394L52.2294 23.2913H40.0006V14.647H61.6769L61.4694 16.9663L59.3444 40.7876H40.0006V32.1432Z" fill="white"/>
<path id="Vector_4" d="M40.0518 54.5931L40.0137 54.6043L30.3868 52.005L29.7712 45.1106H21.095L22.3056 58.6837L40.0125 63.5981L40.0518 63.5868V54.5931Z" fill="#EBEBEB"/>
<path id="Vector_5" d="M50.7043 40.4219L49.6631 51.9981L40.0219 54.6006V63.5944L57.7431 58.6831L57.8731 57.2225L59.3768 40.4219H50.7043Z" fill="white"/>
<path id="Vector_6" d="M40.03 14.647V23.2913H19.15L18.9768 21.3488L18.5831 16.9663L18.3762 14.647H40.03ZM40.0006 32.1445V40.7888H30.495L30.3218 38.8463L29.9275 34.4638L29.7212 32.1445H40.0006Z" fill="#EBEBEB"/>
</g>
</svg>
