<svg width="59" height="89" viewBox="0 0 59 89" fill="none" xmlns="http://www.w3.org/2000/svg">
<g id="logos:figma" clip-path="url(#clip0_466_216)">
<path id="Vector" d="M14.75 88.9999C22.892 88.9999 29.5 82.3546 29.5 74.1666V59.3333H14.75C6.608 59.3333 0 65.9786 0 74.1666C0 82.3546 6.608 88.9999 14.75 88.9999Z" fill="#0ACF83"/>
<path id="Vector_2" d="M0 44.5001C0 36.3121 6.608 29.6667 14.75 29.6667H29.5V59.3334H14.75C6.608 59.3334 0 52.6881 0 44.5001Z" fill="#A259FF"/>
<path id="Vector_3" d="M0 14.8333C0 6.64533 6.608 0 14.75 0H29.5V29.6667H14.75C6.608 29.6667 0 23.0213 0 14.8333Z" fill="#F24E1E"/>
<path id="Vector_4" d="M29.5 0H44.25C52.392 0 59 6.64533 59 14.8333C59 23.0213 52.392 29.6667 44.25 29.6667H29.5V0Z" fill="#FF7262"/>
<path id="Vector_5" d="M59 44.5001C59 52.6881 52.392 59.3334 44.25 59.3334C36.108 59.3334 29.5 52.6881 29.5 44.5001C29.5 36.3121 36.108 29.6667 44.25 29.6667C52.392 29.6667 59 36.3121 59 44.5001Z" fill="#1ABCFE"/>
</g>
<defs>
<clipPath id="clip0_466_216">
<rect width="59" height="89" fill="white"/>
</clipPath>
</defs>
</svg>
