<svg width="80" height="80" viewBox="0 0 80 80" fill="none" xmlns="http://www.w3.org/2000/svg">
<g id="logos:adobe-illustrator" clip-path="url(#clip0_466_232)">
<path id="Vector" d="M66.7188 0H13.2812C5.94622 0 0 6.08893 0 13.6V66.272C0 73.7831 5.94622 79.872 13.2812 79.872H66.7188C74.0538 79.872 80 73.7831 80 66.272V13.6C80 6.08893 74.0538 0 66.7188 0Z" fill="#330000"/>
<path id="Vector_2" d="M38.7668 47.9328H26.37L23.8475 55.9561C23.8131 56.1025 23.73 56.232 23.6124 56.3223C23.4949 56.4126 23.3502 56.4581 23.2034 56.4509H16.9243C16.5665 56.4509 16.4412 56.2493 16.5487 55.8461L27.2821 24.1923C27.3893 23.8627 27.4968 23.4873 27.604 23.0659C27.7446 22.3325 27.8165 21.5875 27.8187 20.8403C27.8114 20.788 27.8161 20.7347 27.8324 20.6847C27.8487 20.6346 27.8761 20.589 27.9126 20.5517C27.949 20.5143 27.9934 20.4862 28.0423 20.4695C28.0912 20.4527 28.1433 20.4479 28.1943 20.4553H36.7275C36.9775 20.4553 37.1206 20.5472 37.1568 20.7305L49.339 55.9011C49.4465 56.2678 49.339 56.4512 49.0171 56.4509H42.0403C41.9205 56.4645 41.7999 56.4329 41.7012 56.3621C41.6024 56.2914 41.5322 56.1862 41.5037 56.0662L38.7668 47.9328ZM28.3018 41.0086H36.7812L36.6603 40.6L36.4662 39.9529L36.3278 39.4985L36.1068 38.783L35.6371 37.2768L35.224 35.9414L34.1512 32.463C33.8842 31.5983 33.6279 30.7302 33.3825 29.8589L33.1862 29.1517L32.9568 28.3155L32.6068 27.0195L32.5412 26.7753H32.4878C32.2192 28.0944 31.8922 29.4003 31.5078 30.6889L30.7115 33.3117L30.2734 34.7606L29.8312 36.2275C29.7512 36.4925 29.6718 36.7545 29.5921 37.0134L29.3546 37.7808L29.1184 38.5302L28.8834 39.2611L28.6496 39.9737C28.5721 40.2083 28.4946 40.4397 28.4175 40.6681L28.3018 41.0086ZM56.5834 26.2806C56.036 26.3031 55.4902 26.2071 54.9816 25.9987C54.473 25.7904 54.013 25.4745 53.6318 25.0717C53.2516 24.6513 52.9564 24.1582 52.7629 23.6206C52.5695 23.083 52.4817 22.5116 52.5046 21.9392C52.4852 21.3725 52.5827 20.808 52.7907 20.2825C52.9988 19.757 53.3128 19.2824 53.7121 18.8896C54.4825 18.1323 55.5084 17.7086 56.5762 17.7065L56.6906 17.7078C57.9787 17.7078 58.9896 18.1014 59.7231 18.8893C60.0933 19.2986 60.381 19.7787 60.5697 20.302C60.7585 20.8254 60.8446 21.3817 60.8231 21.9392C60.8456 22.5139 60.755 23.0874 60.5568 23.6255C60.3586 24.1637 60.0568 24.6556 59.6693 25.072C59.2781 25.4669 58.8137 25.7776 58.3034 25.9859C57.7931 26.1942 57.2473 26.2958 56.6981 26.2848L56.5834 26.2806ZM52.8803 55.9011V29.6329C52.8803 29.3033 53.0228 29.1382 53.3096 29.1382H59.9109C60.1968 29.1382 60.34 29.303 60.3403 29.6329V55.9011C60.3403 56.2678 60.1971 56.4512 59.9109 56.4509H53.3634C53.0584 56.4509 52.8978 56.2864 52.8818 55.9574L52.8803 55.9011Z" fill="#FF9A00"/>
</g>
<defs>
<clipPath id="clip0_466_232">
<rect width="80" height="80" fill="white"/>
</clipPath>
</defs>
</svg>
