<svg width="80" height="80" viewBox="0 0 80 80" fill="none" xmlns="http://www.w3.org/2000/svg">
<g id="logos:adobe-indesign" clip-path="url(#clip0_466_238)">
<path id="Vector" d="M66.7188 0H13.2812C5.94622 0 0 6.08893 0 13.6V66.272C0 73.7831 5.94622 79.872 13.2812 79.872H66.7188C74.0538 79.872 80 73.7831 80 66.272V13.6C80 6.08893 74.0538 0 66.7188 0Z" fill="#49021F"/>
<path id="Vector_2" d="M29.0528 20.8951V55.9012C29.0528 56.2679 28.8919 56.4509 28.5697 56.4509H22.0759C21.7894 56.4509 21.6462 56.2676 21.6469 55.9012V20.8951C21.6469 20.6023 21.8078 20.4557 22.1297 20.4554H28.6234C28.678 20.4475 28.7337 20.4519 28.7865 20.4682C28.8392 20.4845 28.8879 20.5124 28.9291 20.55C28.9703 20.5875 29.003 20.6338 29.025 20.6856C29.0469 20.7374 29.0576 20.7935 29.0562 20.85L29.0528 20.8951ZM48.6109 56.9969L48.2653 57.0004C45.7952 57.0389 43.3478 56.5133 41.1009 55.4618C39.0077 54.4698 37.258 52.8504 36.0831 50.818C34.8959 48.7991 34.2881 46.2826 34.2594 43.2692L34.2584 43.042C34.2383 40.5198 34.8678 38.0367 36.0834 35.8429C37.3019 33.6683 39.0791 31.8773 41.2219 30.6644L41.3962 30.5671C43.7212 29.2484 46.53 28.5889 49.8219 28.5889L49.8912 28.5892L50.0453 28.5927L50.2197 28.5997L50.4144 28.61L50.629 28.6237L50.8637 28.6413L51.394 28.6858L51.539 28.6986V17.873C51.539 17.617 51.6465 17.4881 51.8609 17.4881H58.6231C58.6668 17.4816 58.7114 17.4857 58.7533 17.5C58.7952 17.5143 58.8333 17.5384 58.8646 17.5704C58.8958 17.6024 58.9193 17.6414 58.9333 17.6843C58.9473 17.7272 58.9512 17.7729 58.945 17.8177V50.2961C58.9472 50.9746 58.9741 51.6528 59.0256 52.3293L59.0762 53.0378L59.1209 53.6973L59.1597 54.3076C59.1663 54.4217 59.1391 54.5353 59.0817 54.6334C59.0243 54.7315 58.9393 54.8095 58.8378 54.8573C57.0933 55.6023 55.2763 56.1548 53.4175 56.5057C51.8315 56.8055 50.2238 56.9698 48.6112 56.9969H48.6109ZM51.539 50.186V35.1834C51.249 35.103 50.9528 35.0479 50.6537 35.0186C50.2881 34.9809 49.9209 34.9626 49.5534 34.9636C48.2509 34.9505 46.964 35.2516 45.7969 35.8429C44.6598 36.4217 43.689 37.2928 42.9794 38.3709C42.2456 39.4698 41.8787 40.9172 41.879 42.7124C41.8529 43.9102 42.044 45.1027 42.4425 46.2292C42.7668 47.137 43.2795 47.9621 43.9453 48.6474C44.5826 49.2779 45.3543 49.7482 46.1994 50.0212C47.0919 50.3172 48.0249 50.4657 48.9631 50.4612C49.4637 50.4612 49.9287 50.4426 50.3584 50.4058C50.7011 50.3794 51.0408 50.3216 51.3734 50.233L51.539 50.186Z" fill="#FF3366"/>
</g>
<defs>
<clipPath id="clip0_466_238">
<rect width="80" height="80" fill="white"/>
</clipPath>
</defs>
</svg>
