<svg width="80" height="80" viewBox="0 0 80 80" fill="none" xmlns="http://www.w3.org/2000/svg">
<g id="devicon:javascript" clip-path="url(#clip0_466_209)">
<path id="Vector" d="M0.880005 0.879883H79.12V79.1205H0.880005V0.879883Z" fill="#F0DB4F"/>
<path id="Vector_2" d="M72.7169 60.46C72.1437 56.8907 69.8162 53.8925 62.9219 51.0969C60.5269 49.9963 57.8568 49.2082 57.0612 47.3932C56.7787 46.3369 56.7412 45.7419 56.92 45.1025C57.4331 43.0275 59.91 42.3807 61.8731 42.9757C63.1375 43.3994 64.3344 44.3738 65.0562 45.9282C68.4325 43.7419 68.4256 43.7563 70.7831 42.2538C69.92 40.9157 69.4594 40.2982 68.8944 39.7257C66.8637 37.4575 64.0969 36.2894 59.6719 36.3788L57.3669 36.6769C55.1581 37.235 53.0531 38.3944 51.8187 39.9488C48.115 44.1513 49.1712 51.5063 53.6781 54.5332C58.1181 57.8657 64.6406 58.6238 65.4737 61.74C66.2844 65.555 62.67 66.79 59.0775 66.3513C56.43 65.8007 54.9575 64.455 53.3656 62.0082C50.4356 63.7038 50.4356 63.7038 47.4231 65.4363C48.1375 66.9982 48.8881 67.705 50.0856 69.0582C55.7531 74.8069 69.9356 74.5244 72.4794 65.8232C72.5825 65.5244 73.2675 63.5319 72.7169 60.46ZM43.4137 36.8394H36.0956L36.0656 55.7594C36.0656 59.7832 36.2737 63.4719 35.6194 64.6025C34.5487 66.8263 31.7744 66.5507 30.51 66.1194C29.2231 65.4869 28.5687 64.5875 27.8106 63.3163C27.6025 62.9513 27.4462 62.6688 27.3937 62.6469L21.4437 66.2907C22.4331 68.3213 23.8906 70.0838 25.7575 71.2288C28.5462 72.9025 32.2944 73.4157 36.2144 72.5157C38.7656 71.7725 40.9669 70.2332 42.1194 67.89C43.7856 64.8182 43.4281 61.1 43.4131 56.9875C43.4506 50.2782 43.4137 43.57 43.4137 36.8394Z" fill="#323330"/>
</g>
<defs>
<clipPath id="clip0_466_209">
<rect width="80" height="80" fill="white"/>
</clipPath>
</defs>
</svg>
