<?xml version="1.0" standalone="no"?>
<!DOCTYPE svg PUBLIC "-//W3C//DTD SVG 20010904//EN"
 "http://www.w3.org/TR/2001/REC-SVG-20010904/DTD/svg10.dtd">
<svg version="1.0" xmlns="http://www.w3.org/2000/svg"
 width="920.000000pt" height="920.000000pt" viewBox="0 0 920.000000 920.000000"
 preserveAspectRatio="xMidYMid meet">

<g transform="translate(0.000000,920.000000) scale(0.100000,-0.100000)"
fill="#000000" stroke="none">
<path d="M4190 9183 c-19 -2 -93 -10 -165 -19 -1306 -157 -2510 -902 -3251
-2013 -389 -582 -616 -1174 -730 -1901 -26 -166 -28 -196 -32 -601 -3 -389 -2
-440 18 -595 135 -1070 597 -2003 1366 -2755 646 -631 1472 -1062 2348 -1224
303 -56 421 -66 776 -70 355 -4 517 3 695 30 422 62 797 163 1151 310 207 87
417 193 411 208 -3 7 -157 217 -343 467 -1050 1413 -1126 1518 -1635 2272
-522 771 -947 1399 -1198 1767 l-146 214 -6 -134 c-3 -74 -6 -618 -7 -1209 -2
-1229 -5 -1347 -36 -1392 -46 -68 -61 -73 -243 -76 -164 -3 -165 -3 -204 23
-22 14 -49 40 -59 58 -20 31 -20 63 -20 1842 l0 1810 30 36 c51 63 80 71 265
71 178 0 217 -7 258 -50 23 -24 391 -573 769 -1147 79 -121 330 -501 558 -845
227 -344 571 -866 766 -1160 194 -294 625 -947 957 -1450 332 -503 609 -915
615 -915 17 0 232 152 354 249 867 696 1454 1652 1663 2711 69 348 84 545 80
990 -3 242 -9 346 -25 475 -94 732 -332 1372 -737 1983 -451 681 -1071 1225
-1808 1587 -481 237 -978 381 -1530 445 -96 11 -226 15 -500 13 -203 0 -386
-3 -405 -5z m1983 -2767 c54 -22 95 -77 102 -138 3 -29 5 -768 3 -1643 l-3
-1589 -282 432 -283 432 0 1187 c0 1131 1 1190 19 1228 20 44 41 66 86 89 40
21 309 23 358 2z"/>
<path d="M7046 705 c-11 -8 -15 -15 -9 -15 6 0 16 7 23 15 16 19 11 19 -14 0z"/>
<path d="M6826 575 c-11 -8 -15 -15 -9 -15 6 0 16 7 23 15 16 19 11 19 -14 0z"/>
</g>
</svg>
