<svg width="80" height="80" viewBox="0 0 80 80" fill="none" xmlns="http://www.w3.org/2000/svg">
<g id="skill-icons:nodejs-dark" clip-path="url(#clip0_466_222)">
<g id="Group">
<path id="Vector" d="M61.25 0H18.75C8.39466 0 0 8.39466 0 18.75V61.25C0 71.6053 8.39466 80 18.75 80H61.25C71.6053 80 80 71.6053 80 61.25V18.75C80 8.39466 71.6053 0 61.25 0Z" fill="#242938"/>
<path id="Vector_2" d="M37.4619 9.72379C38.9991 8.8441 41.0009 8.84004 42.5366 9.72379C50.2622 14.0894 57.9903 18.4479 65.7147 22.816C67.1678 23.6344 68.1394 25.2513 68.1247 26.9254V53.1894C68.1356 54.9329 67.0678 56.5885 65.535 57.3882C57.8347 61.7297 50.1381 66.0763 42.4391 70.4179C40.8706 71.3147 38.8284 71.2457 37.3084 70.275C35 68.9369 32.6875 67.605 30.3787 66.2682C29.9069 65.9869 29.375 65.7632 29.0419 65.3057C29.3366 64.9088 29.8631 64.8594 30.2909 64.686C31.2544 64.3794 32.1397 63.8875 33.0247 63.4104C33.2488 63.2572 33.5219 63.316 33.7366 63.4529C35.7106 64.5847 37.6675 65.7497 39.6481 66.8707C40.0706 67.1147 40.4984 66.7907 40.8597 66.5894C48.4159 62.3185 55.9816 58.0641 63.5369 53.7919C63.8169 53.6572 63.9716 53.36 63.9487 53.0535C63.9541 44.3894 63.95 35.7241 63.9516 27.0597C63.9834 26.7122 63.7822 26.3922 63.4675 26.2497C55.7941 21.9282 48.1241 17.6004 40.4519 13.2779C40.319 13.1864 40.1616 13.1373 40.0002 13.137C39.8389 13.1368 39.6813 13.1853 39.5481 13.2763C31.8756 17.6004 24.2075 21.9325 16.535 26.2535C16.2216 26.3963 16.0113 26.711 16.0484 27.0597C16.05 35.7241 16.0484 44.3894 16.0484 53.0547C16.0351 53.2044 16.068 53.3546 16.1427 53.485C16.2173 53.6154 16.3301 53.7198 16.4659 53.7841C18.5131 54.945 20.5631 56.0979 22.6119 57.255C23.7663 57.876 25.1831 58.2454 26.4547 57.7694C27.5769 57.3669 28.3634 56.2216 28.3422 55.0304C28.3528 46.4169 28.3369 37.8022 28.35 29.1897C28.3219 28.8075 28.6847 28.4916 29.0566 28.5279C30.0403 28.521 31.0253 28.5144 32.0091 28.5304C32.4197 28.521 32.7022 28.9329 32.6516 29.3179C32.6475 37.986 32.6622 46.6541 32.645 55.3219C32.6475 57.6322 31.6984 60.146 29.5616 61.2763C26.9294 62.6397 23.6756 62.3507 21.075 61.0432C18.8238 59.9194 16.675 58.5932 14.4638 57.3894C12.9269 56.5941 11.8644 54.9319 11.8753 53.1897V26.9254C11.8591 25.2166 12.8694 23.5704 14.3675 22.7638C22.0666 18.4191 29.7644 14.0707 37.4619 9.72379Z" fill="#81CD39"/>
<path id="Vector_3" d="M44.1787 27.9172C47.5365 27.701 51.1312 27.7891 54.1528 29.4435C56.4925 30.711 57.7893 33.3716 57.8306 35.9706C57.7653 36.321 57.3987 36.5144 57.064 36.4903C56.09 36.4891 55.1153 36.5038 54.1412 36.4838C53.7278 36.4997 53.4878 36.1188 53.4359 35.7535C53.1559 34.5097 52.4775 33.2781 51.3072 32.6781C49.5103 31.7788 47.4272 31.8241 45.4678 31.8428C44.0375 31.9185 42.4993 32.0425 41.2875 32.8835C40.3572 33.5206 40.0747 34.8069 40.4065 35.8428C40.7197 36.5866 41.5781 36.8266 42.2809 37.0478C46.3275 38.1063 50.6156 38.0006 54.585 39.3935C56.2284 39.9613 57.8359 41.0653 58.3984 42.786C59.1343 45.0922 58.8118 47.8485 57.1709 49.6997C55.8403 51.2232 53.9025 52.0525 51.9697 52.5028C49.3984 53.0763 46.73 53.091 44.1187 52.8363C41.6634 52.5563 39.1081 51.9113 37.2128 50.2385C35.5918 48.831 34.8003 46.6378 34.8787 44.5216C34.8975 44.1641 35.2534 43.9147 35.5959 43.9441C36.5768 43.9363 37.5581 43.9335 38.539 43.9457C38.9312 43.9175 39.2215 44.2563 39.2418 44.6256C39.4225 45.8103 39.8678 47.0541 40.9012 47.7563C42.895 49.0428 45.3972 48.9547 47.6803 48.9907C49.5718 48.9069 51.6953 48.8816 53.2387 47.6313C54.0531 46.9181 54.2943 45.725 54.0743 44.6988C53.8359 43.8322 52.9293 43.4285 52.1509 43.1644C48.1562 41.901 43.82 42.3594 39.864 40.9303C38.2578 40.3628 36.7047 39.2897 36.0878 37.6397C35.2268 35.3044 35.6212 32.4156 37.434 30.6272C39.2015 28.8475 41.7528 28.1622 44.1787 27.9172Z" fill="#81CD39"/>
</g>
</g>
<defs>
<clipPath id="clip0_466_222">
<rect width="80" height="80" fill="white"/>
</clipPath>
</defs>
</svg>
