<svg width="80" height="80" viewBox="0 0 80 80" fill="none" xmlns="http://www.w3.org/2000/svg">
<g id="logos:adobe-photoshop" clip-path="url(#clip0_466_235)">
<path id="Vector" d="M66.7188 0H13.2812C5.94622 0 0 6.08893 0 13.6V66.272C0 73.7831 5.94622 79.872 13.2812 79.872H66.7188C74.0538 79.872 80 73.7831 80 66.272V13.6C80 6.08893 74.0538 0 66.7188 0Z" fill="#001E36"/>
<path id="Vector_2" d="M18.0137 56.0113V20.8951C18.0137 20.6391 18.1212 20.5105 18.3359 20.5105L18.6756 20.5095L19.2562 20.5031L20.0631 20.4868L22.7662 20.4283L25.6647 20.3732C26.684 20.3553 27.6947 20.3457 28.6965 20.3457C31.4153 20.3457 33.705 20.6939 35.5659 21.3899C37.2446 21.9713 38.7755 22.9287 40.0472 24.1924C41.1252 25.2879 41.9584 26.6098 42.489 28.067C42.9911 29.485 43.2455 30.9824 43.2406 32.4907C43.2406 35.4222 42.5784 37.8401 41.2547 39.7447C39.9599 41.6029 38.154 43.0239 36.0672 43.8267L35.8881 43.8939C33.709 44.7262 31.2959 45.027 28.6494 45.0459L28.2381 45.0471L27.6278 45.0439L27.32 45.0395L26.9769 45.0311L26.77 45.0228L26.6444 45.0161L26.3353 45.0046L25.9575 44.9966L25.3887 44.9924L25.2622 44.9921V55.9563C25.2716 56.0235 25.2656 56.092 25.2446 56.1564C25.2237 56.2208 25.1883 56.2794 25.1415 56.3274C25.0946 56.3754 25.0374 56.4116 24.9745 56.433C24.9116 56.4545 24.8447 56.4606 24.779 56.451H18.3897C18.1387 56.451 18.0137 56.3051 18.0137 56.0113ZM25.2625 27.1051V38.5585C25.6908 38.5939 26.1203 38.6123 26.55 38.6135H28.3212C29.5424 38.6093 30.7565 38.4232 31.9253 38.0609L32.1584 37.9863C33.2217 37.6629 34.1719 37.0333 34.8956 36.1726C35.5681 35.3604 35.9165 34.2414 35.9406 32.8151L35.9422 32.6555C35.9703 31.5924 35.7003 30.5435 35.1637 29.6331C34.5998 28.7526 33.7847 28.0714 32.8294 27.682C31.5818 27.1855 30.2493 26.952 28.9115 26.9953L28.2309 26.9972L27.8015 27.0011L27.3919 27.0065L26.8137 27.018L26.3919 27.0302L26.1728 27.0385L25.88 27.0526L25.6306 27.0683L25.4884 27.0798L25.3656 27.0919L25.3115 27.0983L25.2625 27.1051ZM63.9906 36.4759C63.0544 35.9833 62.0614 35.6133 61.035 35.3745L60.7975 35.322C59.6683 35.0567 58.5155 34.9105 57.3572 34.8859L57.0678 34.8823C56.3888 34.8635 55.7107 34.9468 55.0553 35.1297C54.638 35.2247 54.2671 35.468 54.0084 35.8164C53.8335 36.0952 53.7405 36.4195 53.7403 36.7508C53.7501 37.0721 53.8632 37.3812 54.0622 37.6299C54.347 37.971 54.6894 38.2568 55.0731 38.4737L55.1894 38.5367C55.9545 38.9586 56.7429 39.3347 57.5506 39.6631C59.3517 40.2806 61.0727 41.1202 62.6756 42.1636C63.7677 42.8694 64.6715 43.842 65.3056 44.994C65.8387 46.0847 66.1057 47.2914 66.0837 48.5108C66.1159 50.1213 65.6664 51.7034 64.7956 53.0449C63.8634 54.4065 62.5687 55.465 61.0656 56.0945C59.4916 56.803 57.5584 57.1687 55.2665 57.1927L55.0284 57.194C53.6076 57.2087 52.1888 57.0814 50.7922 56.8139L50.4934 56.7543C49.3175 56.5335 48.1728 56.1643 47.0856 55.6551C46.9763 55.5974 46.884 55.5109 46.818 55.4047C46.752 55.2984 46.7147 55.1762 46.71 55.0503V49.0606C46.7036 49.0024 46.7127 48.9436 46.7363 48.8903C46.76 48.8371 46.7973 48.7914 46.8444 48.7582C46.8904 48.7315 46.9433 48.7199 46.9961 48.7248C47.0488 48.7297 47.0987 48.751 47.1394 48.7857C48.4233 49.561 49.8174 50.1265 51.2715 50.4619C52.5533 50.7909 53.8681 50.9662 55.1894 50.9841C56.4412 50.9841 57.3625 50.819 57.9531 50.4894C58.2198 50.3644 58.4454 50.1629 58.6026 49.9093C58.7598 49.6557 58.8418 49.3609 58.8387 49.0606C58.8387 48.5851 58.5703 48.1268 58.0337 47.6868C57.8087 47.5025 57.4859 47.3019 57.0659 47.0852L56.865 46.9841L56.6506 46.8807L56.5381 46.8283L56.3025 46.7214C56.2616 46.7031 56.2207 46.685 56.1797 46.667L55.9234 46.5569L55.79 46.5009L55.5131 46.3873L55.3694 46.3297L55.0716 46.2123L54.76 46.0929C53.0748 45.4923 51.477 44.6604 50.0103 43.6199C48.9613 42.8729 48.0976 41.8848 47.4881 40.7348C46.9603 39.6519 46.6935 38.4554 46.71 37.2452C46.707 35.7912 47.097 34.3647 47.8369 33.1236C48.6806 31.7572 49.8919 30.6692 51.3253 29.9915C52.8994 29.186 54.8669 28.7828 57.2284 28.7822C58.6116 28.7708 59.9934 28.8719 61.3609 29.0846C62.3512 29.2132 63.3193 29.4813 64.2378 29.8814C64.3856 29.9249 64.5047 30.0366 64.5597 30.1838C64.5962 30.3179 64.6141 30.4564 64.6134 30.5959V36.1463C64.6212 36.2775 64.5597 36.4033 64.4525 36.4759C64.3807 36.5125 64.3017 36.5315 64.2215 36.5315C64.1414 36.5315 64.0624 36.5125 63.9906 36.4759Z" fill="#31A8FF"/>
</g>
<defs>
<clipPath id="clip0_466_235">
<rect width="80" height="80" fill="white"/>
</clipPath>
</defs>
</svg>
