<svg width="80" height="80" viewBox="0 0 80 80" fill="none" xmlns="http://www.w3.org/2000/svg">
<g id="devicon:react-wordmark">
<g id="Group">
<path id="Vector" d="M40 35.5C43.2102 35.5 45.8125 32.8977 45.8125 29.6875C45.8125 26.4773 43.2102 23.875 40 23.875C36.7898 23.875 34.1875 26.4773 34.1875 29.6875C34.1875 32.8977 36.7898 35.5 40 35.5Z" fill="#61DAFB"/>
<path id="Vector_2" d="M40 51.0625C44.5625 55.5 49.0625 58.125 52.6875 58.125C53.875 58.125 55 57.875 55.9375 57.3125C59.1875 55.4375 60.375 50.75 59.25 44.0625C59.0625 42.875 58.8125 41.6875 58.5 40.4375C59.75 40.0625 60.875 39.6875 62 39.3125C68.3125 36.875 71.8125 33.5 71.8125 29.8125C71.8125 26.0625 68.3125 22.6875 62 20.3125C60.875 19.875 59.75 19.5 58.5 19.1875C58.8125 17.9375 59.0625 16.75 59.25 15.5625C60.3125 8.75 59.125 4 55.875 2.125C54.9375 1.5625 53.8125 1.3125 52.625 1.3125C49.0625 1.3125 44.5 3.9375 39.9375 8.375C35.4375 3.9375 30.9375 1.3125 27.3125 1.3125C26.125 1.3125 25 1.5625 24.0625 2.125C20.8125 4 19.625 8.6875 20.75 15.375C20.9375 16.5625 21.1875 17.75 21.5 19C20.25 19.375 19.125 19.75 18 20.125C11.6875 22.5625 8.1875 25.9375 8.1875 29.625C8.1875 33.375 11.6875 36.75 18 39.125C19.125 39.5625 20.25 39.9375 21.5 40.25C21.1875 41.5 20.9375 42.6875 20.75 43.875C19.6875 50.5625 20.875 55.3125 24.0625 57.125C25 57.6875 26.125 57.9375 27.3125 57.9375C30.9375 58.0625 35.4375 55.4375 40 51.0625ZM36.5 42.625C37.625 42.6875 38.8125 42.6875 40 42.6875C41.1875 42.6875 42.375 42.6875 43.5 42.625C42.375 44.125 41.1875 45.5 40 46.8125C38.8125 45.5 37.625 44.125 36.5 42.625ZM28.75 36.1875C29.375 37.25 29.9375 38.25 30.625 39.25C28.6875 39 26.875 38.6875 25.125 38.3125C25.6875 36.625 26.3125 34.875 27.0625 33.125C27.5625 34.125 28.125 35.1875 28.75 36.1875ZM25.125 21.125C26.875 20.75 28.6875 20.4375 30.625 20.1875C30 21.1875 29.375 22.1875 28.75 23.25C28.125 24.3125 27.5625 25.3125 27.0625 26.375C26.25 24.5625 25.625 22.8125 25.125 21.125ZM28.5625 29.6875C29.375 28 30.25 26.3125 31.25 24.625C32.1875 23 33.25 21.375 34.3125 19.75C36.1875 19.625 38.0625 19.5625 40 19.5625C42 19.5625 43.875 19.625 45.6875 19.75C46.8125 21.375 47.8125 23 48.75 24.625C49.75 26.3125 50.625 28 51.4375 29.6875C50.625 31.375 49.75 33.0625 48.75 34.75C47.8125 36.375 46.75 38 45.6875 39.625C43.8125 39.75 41.9375 39.8125 40 39.8125C38 39.8125 36.125 39.75 34.3125 39.625C33.1875 38 32.1875 36.375 31.25 34.75C30.25 33.0625 29.375 31.375 28.5625 29.6875ZM53 26.3125L51.3125 23.1875C50.6875 22.125 50.125 21.125 49.4375 20.125C51.375 20.375 53.1875 20.6875 54.9375 21.0625C54.375 22.8125 53.75 24.5625 53 26.3125ZM53 33.0625C53.75 34.8125 54.375 36.5625 54.9375 38.25C53.1875 38.625 51.375 38.9375 49.4375 39.1875C50.0625 38.1875 50.6875 37.1875 51.3125 36.125C51.875 35.1875 52.4375 34.125 53 33.0625ZM54.4375 54.75C53.9375 55.0625 53.3125 55.1875 52.625 55.1875C49.5625 55.1875 45.75 52.6875 42 48.9375C43.8125 47 45.5625 44.8125 47.3125 42.375C50.25 42.125 53.0625 41.6875 55.6875 41.0625C56 42.1875 56.1875 43.3125 56.375 44.4375C57.25 49.75 56.5625 53.5625 54.4375 54.75ZM57.6875 21.8125C64.6875 23.8125 68.875 26.875 68.875 29.6875C68.875 32.125 66 34.5625 60.9375 36.5C59.9375 36.875 58.8125 37.25 57.6875 37.5625C56.875 35 55.875 32.375 54.625 29.6875C55.875 27 56.9375 24.375 57.6875 21.8125ZM52.6875 4.1875C53.375 4.1875 53.9375 4.3125 54.5 4.625C56.5625 5.8125 57.3125 9.5625 56.4375 14.9375C56.25 16 56 17.125 55.75 18.3125C53.125 17.75 50.3125 17.3125 47.375 17C45.6875 14.5625 43.875 12.375 42.0625 10.4375C45.8125 6.75 49.625 4.1875 52.6875 4.1875ZM43.5 16.75C42.375 16.6875 41.1875 16.6875 40 16.6875C38.8125 16.6875 37.625 16.6875 36.5 16.75C37.625 15.25 38.8125 13.875 40 12.5625C41.1875 13.875 42.375 15.3125 43.5 16.75ZM25.5625 4.625C26.0625 4.3125 26.6875 4.1875 27.375 4.1875C30.4375 4.1875 34.25 6.6875 38 10.4375C36.1875 12.375 34.4375 14.5625 32.6875 17C29.75 17.25 26.9375 17.6875 24.3125 18.3125C24 17.1875 23.8125 16.0625 23.625 14.9375C22.75 9.625 23.4375 5.875 25.5625 4.625ZM22.3125 37.5625C15.3125 35.5625 11.125 32.5 11.125 29.6875C11.125 27.25 14 24.8125 19.0625 22.875C20.0625 22.5 21.1875 22.125 22.3125 21.8125C23.125 24.375 24.125 27 25.375 29.6875C24.125 32.375 23.0625 35.0625 22.3125 37.5625ZM23.625 44.4375C23.8125 43.375 24.0625 42.25 24.3125 41.0625C26.9375 41.625 29.75 42.0625 32.6875 42.375C34.375 44.8125 36.1875 47 38 48.9375C34.25 52.625 30.4375 55.1875 27.375 55.1875C26.6875 55.1875 26.125 55.0625 25.5625 54.75C23.4375 53.5625 22.75 49.75 23.625 44.4375ZM21 70.1875C22.375 68.5 22.4375 66.625 21.6875 64.75C20.9375 62.875 19.375 62 17.4375 61.9375C15.125 61.875 12.75 61.9375 10.4375 61.9375H10V78.125H11.875V72H14.8125C15.1875 72 15.5 72.125 15.6875 72.4375L19.4375 78.25C19.5 78.375 19.6875 78.5625 19.8125 78.5625H22.25C20.75 76.25 19.3125 74.0625 17.8125 71.8125C19.125 71.625 20.25 71.1875 21 70.1875ZM11.875 70.0625V63.875H12.5625C14 63.875 15.5 63.8125 16.9375 63.9375C18.625 64 19.8125 65.3125 19.8125 67C19.8125 68.6875 18.4375 70 16.75 70.0625C15.25 70.125 13.75 70.0625 11.875 70.0625ZM36.0625 70.875C35.0625 66.5 31.0625 65.375 28 66.75C25.625 67.8125 24.5625 69.875 24.5 72.4375C24.4375 74.375 25 76.125 26.5 77.4375C28.1875 78.9375 30.25 79.125 32.375 78.75C33.5625 78.5 34.625 77.9375 35.4375 77.0625C35.125 76.625 34.8125 76.1875 34.5 75.8125C32.75 77.3125 30.8125 77.8125 28.6875 76.8125C27.3125 76.125 26.625 74.4375 26.5 73.1875H36.1875V72.375C36.25 71.8125 36.1875 71.3125 36.0625 70.875ZM26.625 71.875C26.4375 70 28.3125 68 30.375 68C32.75 67.9375 34.25 69.375 34.3125 71.875H26.625ZM45.8125 66.4375C44.875 66.25 43.875 66.1875 42.9375 66.25C41.4375 66.375 40.125 67.0625 39.0625 68.1875C39.375 68.625 39.625 69.0625 40 69.5625C40.125 69.4375 40.25 69.3125 40.375 69.25C41.375 68.3125 42.5625 67.8125 44 67.9375C45.125 68 46.1875 68.375 46.5 69.5C46.75 70.375 46.6875 71.3125 46.75 72.25C46.5625 72.25 46.5 72.1875 46.4375 72.125C44.9375 70.875 43.25 70.625 41.4375 71.0625C39.75 71.5 38.6875 72.8125 38.5625 74.5C38.4375 76.4375 39.3125 77.875 41 78.5625C42.0625 79 43.25 79 44.375 78.75C45.25 78.5625 45.625 78.0625 46.875 77.375V78.1875H48.625C48.625 75.6875 48.6875 72.625 48.625 69.75C48.625 67.9375 47.5625 66.8125 45.8125 66.4375ZM46.6875 74.3125C46.625 74.5 46.6875 74.6875 46.6875 74.875C46.6875 76.1875 46.375 76.625 45.125 77.125C44.25 77.4375 43.3125 77.5625 42.375 77.25C41.3125 76.9375 40.5625 76 40.5625 74.9375C40.5 73.875 41.1875 72.8125 42.25 72.5C43.6875 72 45 72.3125 46.1875 73.1875C46.5625 73.5 46.8125 73.8125 46.6875 74.3125ZM56.4375 68.125C58.0625 67.625 59.5625 67.9375 60.6875 69.3125L60.875 69.4375C61.3125 69.0625 61.6875 68.6875 62.1875 68.25C62 68.0625 61.9375 67.9375 61.8125 67.75C60 65.8125 56.4375 65.5625 54.25 67.125C51.1875 69.375 51.25 73.75 52.75 76.0625C54.1875 78.25 56.25 79 58.6875 78.6875C60.125 78.5 61.3125 77.8125 62.25 76.625C61.8125 76.25 61.375 75.875 60.9375 75.4375C60.8125 75.5625 60.75 75.625 60.6875 75.75C59 77.625 56.1875 77.4375 54.6875 75.4375C53.8125 74.25 53.625 72.875 53.875 71.5C54 69.9375 54.8125 68.6875 56.4375 68.125ZM69.4375 76.625C69.3125 76.6875 69.25 76.75 69.25 76.75C68.75 77.125 68.25 77.1875 67.6875 77C67.125 76.75 67.0625 76.25 67 75.75V68.625C67 68.5 67 68.75 67.0625 68.125H69.4375V66.25H66.9375V63.125H65.0625V66.5H63.4375C63.3125 66.5 63.125 66.625 63.125 66.75C63.0625 67.1875 63.125 67.5 63.125 68.125H65.125V76.125C65.125 77.125 65.375 78 66.25 78.5C67.1875 79.0625 69 78.9375 69.8125 78.25C69.9375 78.1875 70 77.9375 70 77.875C69.8125 77.5 69.625 77.0625 69.4375 76.625Z" fill="#61DAFB"/>
</g>
</g>
</svg>
