<svg width="80" height="80" viewBox="0 0 80 80" fill="none" xmlns="http://www.w3.org/2000/svg">
<g id="bi:terminal-fill">
<path id="Vector" d="M0 15C0 12.3478 1.05357 9.8043 2.92893 7.92893C4.8043 6.05357 7.34784 5 10 5H70C72.6522 5 75.1957 6.05357 77.0711 7.92893C78.9464 9.8043 80 12.3478 80 15V65C80 67.6522 78.9464 70.1957 77.0711 72.0711C75.1957 73.9464 72.6522 75 70 75H10C7.34784 75 4.8043 73.9464 2.92893 72.0711C1.05357 70.1957 0 67.6522 0 65V15ZM47.5 42.5H32.5C31.837 42.5 31.2011 42.7634 30.7322 43.2322C30.2634 43.7011 30 44.337 30 45C30 45.663 30.2634 46.2989 30.7322 46.7678C31.2011 47.2366 31.837 47.5 32.5 47.5H47.5C48.163 47.5 48.7989 47.2366 49.2678 46.7678C49.7366 46.2989 50 45.663 50 45C50 44.337 49.7366 43.7011 49.2678 43.2322C48.7989 42.7634 48.163 42.5 47.5 42.5ZM15.73 40.73C15.4976 40.9624 15.3132 41.2384 15.1874 41.5421C15.0616 41.8458 14.9968 42.1713 14.9968 42.5C14.9968 42.8287 15.0616 43.1542 15.1874 43.4579C15.3132 43.7616 15.4976 44.0376 15.73 44.27C16.1994 44.7394 16.8361 45.0032 17.5 45.0032C17.8287 45.0032 18.1542 44.9384 18.4579 44.8126C18.7616 44.6868 19.0376 44.5024 19.27 44.27L29.27 34.27C29.5028 34.0378 29.6875 33.7619 29.8136 33.4582C29.9396 33.1544 30.0045 32.8288 30.0045 32.5C30.0045 32.1712 29.9396 31.8456 29.8136 31.5418C29.6875 31.2381 29.5028 30.9622 29.27 30.73L19.27 20.73C19.0376 20.4976 18.7616 20.3132 18.4579 20.1874C18.1542 20.0616 17.8287 19.9968 17.5 19.9968C17.1713 19.9968 16.8458 20.0616 16.5421 20.1874C16.2384 20.3132 15.9624 20.4976 15.73 20.73C15.4976 20.9624 15.3132 21.2384 15.1874 21.5421C15.0616 21.8458 14.9968 22.1713 14.9968 22.5C14.9968 22.8287 15.0616 23.1542 15.1874 23.4579C15.3132 23.7616 15.4976 24.0376 15.73 24.27L23.965 32.5L15.73 40.73Z" fill="black"/>
</g>
</svg>
