<svg width="80" height="80" viewBox="0 0 80 80" fill="none" xmlns="http://www.w3.org/2000/svg">
<g id="devicon:typescript" clip-path="url(#clip0_466_227)">
<path id="Vector" d="M14.1687 29.375H76.4624V75.4187H14.1687V29.375Z" fill="white"/>
<path id="Vector_2" d="M0.9375 39.9438V79.0063H79.0625V0.881348H0.9375V39.9438ZM63.8938 36.8188C65.7649 37.2531 67.4656 38.2317 68.7812 39.6313C69.5055 40.3854 70.1352 41.2249 70.6562 42.1313C70.6562 42.2313 67.2812 44.5126 65.225 45.7876C65.15 45.8376 64.85 45.5126 64.5188 45.0188C64.1434 44.3711 63.61 43.8291 62.9685 43.4433C62.3269 43.0575 61.5981 42.8405 60.85 42.8126C58.4813 42.6501 56.9562 43.8938 56.9688 45.9376C56.9492 46.4464 57.0657 46.9513 57.3063 47.4001C57.825 48.4813 58.7938 49.1251 61.8312 50.4376C67.425 52.8438 69.8187 54.4313 71.3062 56.6876C72.9688 59.1876 73.3375 63.2251 72.2125 66.2126C70.9625 69.4626 67.9 71.6688 63.5687 72.4001C61.5905 72.6267 59.5918 72.6057 57.6188 72.3376C54.5948 71.8391 51.8093 70.3873 49.6688 68.1938C48.95 67.4001 47.55 65.3313 47.6375 65.1813C47.8657 65.012 48.1059 64.8595 48.3563 64.7251L51.25 63.1251L53.4937 61.8251L53.9625 62.5188C54.7536 63.6505 55.7603 64.6147 56.925 65.3563C59.425 66.6688 62.8375 66.4876 64.525 64.9688C65.0916 64.4123 65.445 63.6747 65.5238 62.8844C65.6026 62.0942 65.4018 61.3013 64.9563 60.6438C64.3312 59.7751 63.0812 59.0438 59.5875 57.5188C55.5562 55.7813 53.8187 54.7063 52.2313 52.9938C51.2402 51.8638 50.5085 50.5305 50.0875 49.0876C49.7735 47.4391 49.727 45.7508 49.95 44.0876C50.7812 40.1938 53.7 37.4751 57.9625 36.6688C59.9365 36.4246 61.9361 36.4794 63.8938 36.8313V36.8188ZM45.5563 40.0938V43.2938H35.4125V72.1876H28.2188V43.2876H18.05V40.1626C18.0183 39.0849 18.0434 38.0064 18.125 36.9313C18.175 36.8751 24.375 36.8751 31.875 36.8751H45.5188L45.5563 40.0938Z" fill="#007ACC"/>
</g>
<defs>
<clipPath id="clip0_466_227">
<rect width="80" height="80" fill="white"/>
</clipPath>
</defs>
</svg>
